inDegrees=yes
name=ik_S51_A11_T02
DataType=double
version=3
OpenSimVersion=4.3-2021-08-27-4bc7ad9
endheader
time	pelvis_tilt	pelvis_list	pelvis_rotation	pelvis_tx	pelvis_ty	pelvis_tz	hip_flexion_r	hip_adduction_r	hip_rotation_r	knee_angle_r	knee_angle_r_beta	ankle_angle_r	subtalar_angle_r	mtp_angle_r	hip_flexion_l	hip_adduction_l	hip_rotation_l	knee_angle_l	knee_angle_l_beta	ankle_angle_l	subtalar_angle_l	mtp_angle_l	lumbar_extension	lumbar_bending	lumbar_rotation	arm_flex_r	arm_add_r	arm_rot_r	elbow_flex_r	pro_sup_r	wrist_flex_r	wrist_dev_r	arm_flex_l	arm_add_l	arm_rot_l	elbow_flex_l	pro_sup_l	wrist_flex_l	wrist_dev_l
0	0	0	0	0	0.9399999999999999	0	0	0	0	0	0	0	0	0	0	0	0	0	0	0	0	0	0	0	0	0	0	0	0	89.99999999963507	0	0	0	0	0	0	89.99999999869995	0	0
0.02	0.2827208894275827	1.04423821109097	30.919047195122	0	0.9399999999999999	0	2.235002651284114	-1.072921396513713	-0.7528567248076672	3.457148874646142	0.06033863059419189	0	0	0	2.235002651284114	-1.072921396513713	-0.7528567248076672	3.457148874646142	0.06033863059419189	0	0	0	1.104344763793809	0.3778296800600762	13.22929175888931	1.854279560321844	-5.929685708102049	-11.31237402318375	5.981012797033786	153.313152403186	0	0	3.192614211770114	-4.966880670266459	-8.854072180657045	5.73201485455275	140.4217246629979	0	0
0.04	0.2945776405388409	1.03165684838264	31.3279440966759	0	0.9399999999999999	0	5.851937468315103	-2.660627230300817	-2.028768887807798	6.859399550713859	0.1197191068697766	0	0	0	5.851937468315103	-2.660627230300817	-2.028768887807798	6.859399550713859	0.1197191068697766	0	0	0	1.083076975329708	0.3813885621569893	12.77761105013485	1.879662796295696	-5.912864655036586	-11.33576264144703	5.922072016342811	153.3623729262291	0	0	3.207687078885482	-4.971581400105092	-8.865364240982503	5.695456315858897	140.453910203792	0	0
0.06	0.2958642721628451	1.034590425597132	31.44112716042191	0	0.9399999999999999	0	6.799237516529321	-3.069820999718491	-2.353597628250052	7.832337706814984	0.1367000811120238	0	0	0	6.799237516529321	-3.069820999718491	-2.353597628250052	7.832337706814984	0.1367000811120238	0	0	0	1.077431680858954	0.3808941584695019	12.64754326837605	1.854419181165611	-5.900987578597442	-11.35280378992272	5.956469057711543	153.3315657048208	0	0	3.213642467447396	-4.968093186637394	-8.883938005253478	5.718599633906625	140.5113754888805	0	0
0.08	0.2869048792420672	1.034784352883235	31.52362885591668	0	0.9399999999999999	0	7.586220560982844	-3.401197125116626	-2.61989373518834	8.638418832717914	0.1507688507972129	0	0	0	7.586220560982844	-3.401197125116626	-2.61989373518834	8.638418832717914	0.1507688507972129	0	0	0	1.065124381694339	0.3866562718057541	12.52037770024416	1.873642901403399	-5.922926978093478	-11.30551842440368	5.926757483513941	153.3138782735215	0	0	3.219472225198281	-4.951476669070185	-8.815308459118178	5.755458651249658	140.4904575377499	0	0
0.1	0.2661802830135367	1.021824480711614	31.57987217096601	0	0.9399999999999999	0	8.34735058509491	-3.70895116274368	-2.873823559324941	9.404714788490162	0.1641432382701555	0	0	0	8.34735058509491	-3.70895116274368	-2.873823559324941	9.404714788490162	0.1641432382701555	0	0	0	1.034346226786515	0.3887034871124127	12.37763303827923	1.942385883015555	-5.909780570407971	-11.29226219069345	5.848535454132499	153.3545787539398	0	0	3.260399770790535	-4.934938085871364	-8.880989056919438	5.698795456561378	140.6098642074212	0	0
0.12	0.2543966601755285	1.022756908575156	31.53956428687414	0	0.9399999999999999	0	8.353868434470987	-3.712005182071898	-2.87603424234896	9.412818414154188	0.1642846732193418	0	0	0	8.353868434470987	-3.712005182071898	-2.87603424234896	9.412818414154188	0.1642846732193418	0	0	0	1.024928216051662	0.3954161372297557	12.36610756288721	1.869783212072862	-5.9131805284888	-11.33177203142554	5.899772755234102	153.3873789554376	0	0	3.278086677696681	-4.93946489429181	-8.859154316901554	5.742025944387234	140.5934760097458	0	0
0.14	0.2410758373729423	1.016270407277076	31.50827801075005	0	0.9399999999999999	0	8.363312931731166	-3.716438777175464	-2.879240281954014	9.424547157797347	0.1644893784130373	0	0	0	8.363312931731166	-3.716438777175464	-2.879240281954014	9.424547157797347	0.1644893784130373	0	0	0	1.010114368982533	0.3969597503325441	12.36646386376489	1.858891560490087	-5.931246139674777	-11.37275184522825	5.914478644964992	153.3611070324321	0	0	3.268461395909756	-4.923079018196658	-8.717224810268807	5.778194971953132	140.5082136563266	0	0
0.16	0.2309690704637431	1.011280738488325	31.46902539513896	0	0.9399999999999999	0	8.363958399326865	-3.716729507605289	-2.879455692406786	9.425362022501815	0.1645036004850886	0	0	0	8.363958399326865	-3.716729507605289	-2.879455692406786	9.425362022501815	0.1645036004850886	0	0	0	0.9991305514617208	0.3975574871495507	12.35038452159413	1.846007222988749	-5.930767637977465	-11.38395347551802	5.914440709529011	153.3639326611691	0	0	3.268930167911959	-4.926687422738213	-8.70693765241851	5.779234597315346	140.5073910898512	0	0
0.18	0.2354786457511178	1.016613202203131	31.57027717493175	0	0.9399999999999999	0	9.130401364637098	-4.020038175801721	-3.132187415362587	10.20061114016331	0.1780342501114626	0	0	0	9.130401364637098	-4.020038175801721	-3.132187415362587	10.20061114016331	0.1780342501114626	0	0	0	0.9995498666562584	0.404307023090668	12.23812725731467	1.772317166363891	-5.946222090645602	-11.47412694802632	5.962412686211806	153.4419360314308	0	0	3.263522756195005	-4.920857135921803	-8.669645084289119	5.746376048625138	140.5258384517019	0	0
0.2	0.2420119537033482	1.020749076552945	31.64743412249442	0	0.9399999999999999	0	9.883354039612062	-4.310193141865415	-3.377181668979847	10.96729961616159	0.19141548835473	0	0	0	9.883354039612062	-4.310193141865415	-3.377181668979847	10.96729961616159	0.19141548835473	0	0	0	1.000550119353385	0.4102229596144046	12.10967678473149	1.677360369096877	-5.972855970430352	-11.48043517853904	6.156743962364114	153.359986522853	0	0	3.221064053363952	-4.945119838183792	-8.698771992368128	5.866153256252632	140.4995883530489	0	0
0.22	0.2395332241662488	1.017146550769397	31.71726700434045	0	0.9399999999999999	0	10.56260612666465	-4.547657955123187	-3.591850365548221	11.62961811158541	0.2029751267967307	0	0	0	10.56260612666465	-4.547657955123187	-3.591850365548221	11.62961811158541	0.2029751267967307	0	0	0	0.988323953211694	0.4188380916597693	12.00007329468592	1.692597238745664	-5.972318498283919	-11.60542813037409	5.945257330845937	153.6387983634309	0	0	3.24395650842589	-4.933305445893541	-8.767297387375912	5.775187477361717	140.5969586648471	0	0
0.24	0.2438995694325232	1.025247990936385	31.77155785345168	0	0.9399999999999999	0	11.14041968063584	-4.755800638572312	-3.774504360839612	12.21141348752946	0.2131293716798327	0	0	0	11.14041968063584	-4.755800638572312	-3.774504360839612	12.21141348752946	0.2131293716798327	0	0	0	0.9920793565715389	0.4253023101486869	11.89926713331257	1.627947370904589	-5.994361506360899	-11.65073634512816	5.956669449449465	153.6462433473347	0	0	3.246844323021021	-4.923680905091056	-8.804434898409383	5.760193896485085	140.6107123020232	0	0
0.26	0.2463203516019404	1.017548514304954	31.79692966872492	0	0.9399999999999999	0	11.34045134542456	-4.821639336044463	-3.836463119913536	12.40359369107751	0.2164835489888989	0	0	0	11.34045134542456	-4.821639336044463	-3.836463119913536	12.40359369107751	0.2164835489888989	0	0	0	0.9885977636227581	0.419142012599714	11.86734350479757	1.634448079550688	-5.994570544300109	-11.64952917530541	5.934998277842849	153.6115377646833	0	0	3.24181317738511	-4.932224681504193	-8.780555177670086	5.762093603821326	140.605627852473	0	0
0.28	0.2357320333385759	1.015639975607556	31.72147427804225	0	0.9399999999999999	0	11.34554857923683	-4.823862339094814	-3.838160223413875	12.40962716796736	0.2165888530259698	0	0	0	11.34554857923683	-4.823862339094814	-3.838160223413875	12.40962716796736	0.2165888530259698	0	0	0	0.9791126228165394	0.4221625253670216	11.83016245814064	1.602582611636262	-6.004177745473458	-11.62356481999996	5.94528272656232	153.6431974203715	0	0	3.265343353844168	-4.911231634160481	-8.840773449331754	5.763584655745087	140.5880823537951	0	0
0.3	0.2360549208023514	1.01708050424278	31.7901938628458	0	0.9399999999999999	0	11.84820362365532	-5.000673099581729	-3.994980650602514	12.91738420704707	0.2254508851580884	0	0	0	11.84820362365532	-5.000673099581729	-3.994980650602514	12.91738420704707	0.2254508851580884	0	0	0	0.977279327688635	0.4242720472756825	11.75290583803983	1.601734314099289	-6.024313575921457	-11.61028791605252	5.984408636672649	153.621736054889	0	0	3.257478681611886	-4.913182716469651	-8.790955818457929	5.779631331148204	140.55057435859	0	0
0.32	0.2260842963046295	1.00452020530958	31.72142379856794	0	0.9399999999999999	0	11.8516569564281	-5.002154655912726	-3.996124059495087	12.92144921677313	0.2255218329619337	0	0	0	11.8516569564281	-5.002154655912726	-3.996124059495087	12.92144921677313	0.2255218329619337	0	0	0	0.9625172195843447	0.4182638694571041	11.72983089679354	1.533344026551049	-6.028391207698946	-11.69337316366238	5.990723055775902	153.6611703838972	0	0	3.283684700151992	-4.904939428648457	-8.840604292415712	5.779924004893625	140.5383190210801	0	0
0.34	0.2267490191322044	1.011642851252092	31.72994045931765	0	0.9399999999999999	0	12.0030643375515	-5.049705316669277	-4.042141602096674	13.06589723392172	0.2280429264591538	0	0	0	12.0030643375515	-5.049705316669277	-4.042141602096674	13.06589723392172	0.2280429264591538	0	0	0	0.9657867689706594	0.4251115950205855	11.70014378310221	1.501186140477056	-6.052527062410879	-11.71194635097645	6.02992454405912	153.6848321423729	0	0	3.258386184367909	-4.892522320315623	-8.815871903716564	5.788006435370233	140.5162460880049	0	0
0.36	0.2192996674064327	1.006352861326457	31.68647120816969	0	0.9399999999999999	0	12.00638161026308	-5.05112540179708	-4.043239204214216	13.06979354611437	0.228110929935601	0	0	0	12.00638161026308	-5.05112540179708	-4.043239204214216	13.06979354611437	0.228110929935601	0	0	0	0.9568848850273488	0.4241468045096161	11.68437439264184	1.501563369679992	-6.056623310651348	-11.68419334745846	6.032991967157987	153.6904361595628	0	0	3.258586918452314	-4.89430525080058	-8.75630406957311	5.803300310654243	140.5235929474134	0	0
0.3800000000000001	0.207102768513426	0.9912533966127731	31.72076065763007	0	0.9399999999999999	0	12.47677189239627	-5.215129057227943	-4.188794253937942	13.5485668994683	0.2364671013224415	0	0	0	12.47677189239627	-5.215129057227943	-4.188794253937942	13.5485668994683	0.2364671013224415	0	0	0	0.9352445401682588	0.4191934880747104	11.59013971656183	1.532113856933186	-6.053000582231525	-11.69287681282937	6.059824986020002	153.732618389687	0	0	3.288899714083661	-4.89571784946498	-8.766671852044965	5.81548907080581	140.530957947286	0	0
0.4000000000000001	0.2073535572274591	0.9861606563559193	31.74481544864298	0	0.9399999999999999	0	12.96746596798975	-5.377901957504015	-4.337965296311975	14.04646550860473	0.2451570713929724	0	0	0	12.96746596798975	-5.377901957504015	-4.337965296311975	14.04646550860473	0.2451570713929724	0	0	0	0.9331117770205952	0.4155349559931912	11.48881058672578	1.531191799715008	-6.057965272406022	-11.61949292402189	6.083124943095689	153.5879891254629	0	0	3.281388723282215	-4.890017527088045	-8.824403379897436	5.806073115407902	140.4736866207938	0	0
0.4200000000000001	0.1973666261608583	0.9711359709942496	31.78133305043263	0	0.9399999999999999	0	13.46161460814207	-5.54367871530424	-4.488082030492261	14.55362411005164	0.2540086588180308	0	0	0	13.46161460814207	-5.54367871530424	-4.488082030492261	14.55362411005164	0.2540086588180308	0	0	0	0.9142561445846108	0.4088641191243538	11.39336622816946	1.57308642517379	-6.051686698277527	-11.60254309402576	6.088845522707446	153.6011749914278	0	0	3.312949953701543	-4.909289791736327	-8.820436810375694	5.807586994950637	140.4555339375378	0	0
0.4400000000000001	0.1962086402654607	0.9604580853978303	31.8232361813458	0	0.9399999999999999	0	13.89491913358653	-5.684393835587249	-4.617917835551023	14.99774647024728	0.2617600562851728	0	0	0	13.89491913358653	-5.684393835587249	-4.617917835551023	14.99774647024728	0.2617600562851728	0	0	0	0.9060823502031963	0.4008061383554694	11.31622074375882	1.60314850265436	-6.042918117189911	-11.57596122208135	6.082400750944002	153.6319039278864	0	0	3.32214353347226	-4.920977021666158	-8.81731234130207	5.83650800470229	140.4467937370436	0	0
